<svg xmlns="http://www.w3.org/2000/svg" width="173" height="41" fill="none"><path fill="#675DA6" d="M0 18a4 4 0 0 1 4-4h17a4 4 0 0 1 4 4v17a4 4 0 0 1-4 4H4a4 4 0 0 1-4-4V18Z"/><path fill="#FAFAFA" d="M8.56 31V1.4H20.2c2.933 0 5.067.68 6.4 2.04 1.36 1.333 2.04 3.24 2.04 5.72 0 1.173-.173 2.213-.52 3.12-.32.88-.787 1.613-1.4 2.2a5.003 5.003 0 0 1-2.2 1.16c.64.16 1.253.413 1.84.76.613.347 1.16.813 1.64 1.4.507.587.893 1.307 1.16 2.16.293.827.44 1.787.44 2.88 0 2-.347 3.6-1.04 4.8-.667 1.2-1.667 2.067-3 2.6-1.307.507-2.92.76-4.84.76H8.56Zm5.92-5.32h6.08c.693 0 1.293-.133 1.8-.4.507-.267.893-.68 1.16-1.24.293-.56.44-1.307.44-2.24 0-.773-.147-1.427-.44-1.96a3.159 3.159 0 0 0-1.2-1.24c-.507-.293-1.093-.44-1.76-.44h-6.08v7.52Zm0-12.08h5.76c.853 0 1.52-.307 2-.92.507-.64.76-1.467.76-2.48.027-1.307-.24-2.213-.8-2.72-.56-.507-1.24-.76-2.04-.76h-5.68v6.88ZM42.398 31.2c-2.373 0-4.267-.307-5.68-.92-1.413-.64-2.44-1.76-3.08-3.36-.613-1.6-.92-3.813-.92-6.64 0-2.907.293-5.16.88-6.76.587-1.6 1.574-2.72 2.96-3.36 1.387-.64 3.267-.96 5.64-.96 2.133 0 3.84.213 5.12.64 1.28.427 2.2 1.173 2.76 2.24.587 1.067.88 2.573.88 4.52 0 1.44-.293 2.587-.88 3.44-.56.827-1.36 1.427-2.4 1.8-1.04.347-2.267.52-3.68.52h-5.4c.053 1.093.214 1.973.48 2.64.293.64.813 1.107 1.56 1.4.773.267 1.88.4 3.32.4h6.28v3.48c-1.04.213-2.187.427-3.44.64-1.227.187-2.693.28-4.4.28Zm-3.88-12.36h4.88c.8 0 1.387-.16 1.76-.48.373-.32.56-.893.56-1.72 0-.773-.12-1.387-.36-1.84a1.97 1.97 0 0 0-1.12-1c-.507-.213-1.187-.32-2.04-.32-.907 0-1.627.16-2.16.48-.533.293-.92.827-1.16 1.6-.24.773-.36 1.867-.36 3.28Zm1.64-13.08 3.32-5.6h4.76l-4.6 5.6h-3.48ZM54.843 31V9.52h4.56l1.36 3.28a12.891 12.891 0 0 1 2.6-2.52c.986-.693 2.146-1.04 3.48-1.04.293 0 .586.013.88.04.32.027.613.08.88.16v6.08c-.4-.053-.827-.093-1.28-.12-.427-.053-.84-.08-1.24-.08-.774 0-1.48.093-2.12.28a5.841 5.841 0 0 0-1.72.76c-.507.32-1 .747-1.48 1.28V31h-5.92ZM77.317 40.92c-1.36 0-2.574-.2-3.64-.6-1.04-.4-1.867-.987-2.48-1.76-.614-.747-.92-1.68-.92-2.8v-.64c0-1.147.32-2.133.96-2.96.666-.8 1.52-1.413 2.56-1.84a8.66 8.66 0 0 1 3.32-.64l1.76 1.84c-.587 0-1.107.093-1.56.28a2.554 2.554 0 0 0-1.08.8c-.24.373-.36.827-.36 1.36v.44c0 .773.266 1.36.8 1.76.533.4 1.293.6 2.28.6h4.08c.986 0 1.773-.2 2.36-.6.613-.373.92-.947.92-1.72v-.64c0-.48-.12-.893-.36-1.24-.214-.32-.547-.573-1-.76-.427-.187-1.014-.28-1.76-.28h-4.76c-2.4 0-4.187-.44-5.36-1.32-1.147-.907-1.72-2.013-1.72-3.32 0-1.093.306-2 .92-2.72.64-.747 1.52-1.24 2.64-1.48-.854-.453-1.534-1-2.04-1.64a6.39 6.39 0 0 1-1.08-2.12 8.98 8.98 0 0 1-.32-2.4c0-1.573.32-2.88.96-3.92.666-1.04 1.653-1.813 2.96-2.32 1.333-.507 3-.76 5-.76h11.64v3.24l-3.28.6c.24.267.48.587.72.96.24.347.44.813.6 1.4.186.56.28 1.267.28 2.12 0 1.227-.267 2.333-.8 3.32-.507.987-1.334 1.773-2.48 2.36-1.12.587-2.614.88-4.48.88h-3.8c-.72 0-1.307.107-1.76.32-.454.213-.68.6-.68 1.16 0 .453.186.773.56.96.4.16.84.24 1.32.24h5.92c1.653 0 3.053.213 4.2.64 1.146.427 2.026 1.12 2.64 2.08.613.933.92 2.173.92 3.72v.6c0 2.107-.667 3.76-2 4.96-1.334 1.227-3.387 1.84-6.16 1.84h-6.44Zm2.32-20.96h2.28c.826 0 1.453-.12 1.88-.36.453-.267.76-.613.92-1.04.186-.453.28-.973.28-1.56 0-.747-.12-1.347-.36-1.8-.214-.453-.534-.773-.96-.96-.427-.187-.96-.28-1.6-.28h-2.24c-1.014 0-1.774.227-2.28.68-.507.427-.76 1.187-.76 2.28 0 1.04.24 1.813.72 2.32.48.48 1.186.72 2.12.72ZM99.207 31.24c-1.626 0-2.947-.48-3.96-1.44s-1.52-2.293-1.52-4v-1.92c0-1.627.573-2.96 1.72-4 1.147-1.067 2.933-1.6 5.36-1.6h5.48V16.8c0-.667-.12-1.213-.36-1.64-.24-.453-.693-.773-1.36-.96-.64-.213-1.626-.32-2.96-.32h-6.44v-3.44c1.04-.32 2.24-.6 3.6-.84 1.387-.24 3.054-.36 5-.36 1.787 0 3.307.213 4.56.64 1.28.427 2.24 1.16 2.88 2.2.667 1.04 1 2.48 1 4.32V31h-4.68l-.96-2.28c-.186.213-.506.453-.96.72a16.26 16.26 0 0 1-1.68.84c-.64.267-1.373.493-2.2.68-.8.187-1.64.28-2.52.28Zm3-4.12c.267 0 .56-.027.88-.08l1.04-.24c.374-.107.707-.2 1-.28.32-.107.574-.2.76-.28.214-.08.347-.133.4-.16v-5l-3.6.24c-1.04.08-1.813.347-2.32.8-.48.453-.72 1.067-.72 1.84v.88c0 .533.107.973.32 1.32.24.347.547.6.92.76.4.133.84.2 1.32.2ZM116.639 31V9.52h4.88l1.04 2.2a17.267 17.267 0 0 1 3.04-1.8c1.12-.507 2.494-.76 4.12-.76 1.36 0 2.48.28 3.36.84.907.56 1.587 1.293 2.04 2.2.614-.48 1.32-.947 2.12-1.4a16.86 16.86 0 0 1 2.64-1.16 8.48 8.48 0 0 1 2.76-.48c1.734 0 3.094.333 4.08 1 1.014.64 1.72 1.56 2.12 2.76.4 1.173.6 2.56.6 4.16V31h-5.92V17.6c0-.693-.133-1.267-.4-1.72-.24-.453-.586-.8-1.04-1.04-.453-.24-1-.36-1.64-.36-.8 0-1.613.173-2.44.52-.8.32-1.52.707-2.16 1.16.054.267.094.533.12.8.027.24.04.493.04.76V31h-5.92V17.6c0-.693-.133-1.267-.4-1.72-.24-.453-.586-.8-1.04-1.04-.453-.24-1-.36-1.64-.36-.56 0-1.106.067-1.64.2-.506.133-1 .32-1.48.56-.453.24-.893.52-1.32.84V31h-5.92ZM163.066 31.2c-1.76 0-3.267-.173-4.52-.52-1.253-.373-2.28-.987-3.08-1.84-.773-.853-1.347-1.987-1.72-3.4-.347-1.413-.52-3.16-.52-5.24 0-2.187.173-3.987.52-5.4.373-1.44.947-2.56 1.72-3.36.8-.827 1.827-1.4 3.08-1.72 1.28-.347 2.787-.52 4.52-.52 1.787 0 3.307.173 4.56.52 1.253.347 2.267.933 3.04 1.76.8.8 1.373 1.92 1.72 3.36.373 1.413.56 3.2.56 5.36 0 2.133-.173 3.92-.52 5.36-.347 1.413-.907 2.533-1.68 3.36-.773.827-1.8 1.413-3.08 1.76-1.253.347-2.787.52-4.6.52Zm0-4.72c.72 0 1.32-.067 1.8-.2.507-.133.907-.4 1.2-.8.32-.427.56-1.067.72-1.92.16-.853.24-1.973.24-3.36 0-1.413-.08-2.533-.24-3.36-.16-.853-.4-1.48-.72-1.88a2.038 2.038 0 0 0-1.2-.84c-.48-.133-1.08-.2-1.8-.2-.693 0-1.293.067-1.8.2-.48.133-.88.413-1.2.84-.32.4-.56 1.027-.72 1.88-.133.827-.2 1.947-.2 3.36 0 1.387.067 2.507.2 3.36.16.853.4 1.493.72 1.92.32.4.72.667 1.2.8.507.133 1.107.2 1.8.2Z"/></svg>