<svg xmlns="http://www.w3.org/2000/svg" width="22" height="16" fill="none"><path fill="#675DA6" d="M13 4.8c0-.1.033-.196.1-.287a.524.524 0 0 1 .225-.188 9.768 9.768 0 0 1 1.538-.425 9.087 9.087 0 0 1 2.712-.087c.35.041.692.104 1.025.187a.65.65 0 0 1 .275.188A.452.452 0 0 1 19 4.5a.513.513 0 0 1-.188.425c-.125.1-.279.125-.462.075a5.98 5.98 0 0 0-.888-.188 7.184 7.184 0 0 0-.962-.062c-.483 0-.95.046-1.4.138-.45.091-.892.229-1.325.412-.233.083-.42.08-.563-.013C13.072 5.196 13 5.034 13 4.8Zm0 5.5c0-.1.033-.2.1-.3a.505.505 0 0 1 .225-.2c.5-.183 1.013-.32 1.538-.413a9.507 9.507 0 0 1 2.712-.075c.35.042.692.105 1.025.188a.65.65 0 0 1 .275.188A.452.452 0 0 1 19 10a.513.513 0 0 1-.188.425c-.125.1-.279.125-.462.075a5.987 5.987 0 0 0-.888-.188 7.678 7.678 0 0 0-2.362.063c-.45.083-.892.217-1.325.4-.233.083-.42.083-.563 0-.141-.083-.212-.242-.212-.475Zm0-2.75c0-.1.033-.196.1-.287a.524.524 0 0 1 .225-.188 9.768 9.768 0 0 1 1.538-.425 9.087 9.087 0 0 1 2.712-.088c.35.042.692.105 1.025.188a.65.65 0 0 1 .275.188.452.452 0 0 1 .125.312.513.513 0 0 1-.188.425c-.125.1-.279.125-.462.075a5.98 5.98 0 0 0-.888-.188A7.184 7.184 0 0 0 16.5 7.5c-.483 0-.95.046-1.4.138-.45.091-.892.229-1.325.412-.233.083-.42.08-.563-.013-.141-.091-.212-.254-.212-.487ZM5.2 12.5c.9 0 1.77.104 2.612.313.842.208 1.671.52 2.488.937V3.075a9.51 9.51 0 0 0-2.438-1.163A8.832 8.832 0 0 0 5.2 1.5c-.633 0-1.254.08-1.863.238-.608.158-1.22.354-1.837.587v10.85a7.055 7.055 0 0 1 1.763-.513A11.924 11.924 0 0 1 5.2 12.5Zm6.6 1.25c.833-.417 1.65-.73 2.45-.938.8-.208 1.65-.312 2.55-.312.633 0 1.287.05 1.962.15a9.78 9.78 0 0 1 1.738.4V2.325a7.43 7.43 0 0 0-1.8-.625 9.2 9.2 0 0 0-1.9-.2c-.9 0-1.77.137-2.613.413A9.74 9.74 0 0 0 11.8 3.075V13.75Zm-.75 1.975c-.133 0-.254-.012-.363-.037a.708.708 0 0 1-.287-.138 10.546 10.546 0 0 0-2.5-1.125 9.292 9.292 0 0 0-2.7-.4c-.617 0-1.217.075-1.8.225-.583.15-1.167.333-1.75.55a1.071 1.071 0 0 1-1.112-.075 1.124 1.124 0 0 1-.538-1V2.15c0-.25.058-.48.175-.688.117-.208.292-.37.525-.487.7-.333 1.43-.58 2.188-.738C3.646.08 4.417 0 5.2 0c1.05 0 2.07.142 3.062.425.992.283 1.921.717 2.788 1.3a9.491 9.491 0 0 1 2.737-1.3A10.74 10.74 0 0 1 16.8 0c.783 0 1.55.08 2.3.237.75.159 1.475.405 2.175.738.233.117.413.28.538.487.125.209.187.438.187.688v11.575c0 .467-.188.82-.563 1.063-.375.241-.745.245-1.112.012a11.914 11.914 0 0 0-1.725-.563 7.598 7.598 0 0 0-1.8-.212c-.9 0-1.783.133-2.65.4a10.2 10.2 0 0 0-2.45 1.125.708.708 0 0 1-.287.137c-.109.026-.23.038-.363.038Z"/></svg>