<svg xmlns="http://www.w3.org/2000/svg" width="24" height="22" fill="none"><path fill="#675DA6" d="M13.59 22c-.424 0-.733-.137-.926-.413-.194-.274-.217-.614-.07-1.017l4.07-10.725c.11-.293.313-.54.608-.743a1.6 1.6 0 0 1 .914-.302c.314 0 .623.1.927.302.305.202.512.45.623.743l4.152 10.615c.166.422.147.784-.056 1.086-.203.303-.544.454-1.024.454-.203 0-.396-.064-.58-.192a1.02 1.02 0 0 1-.388-.495l-.914-2.778h-5.314L14.56 21.34c-.074.183-.203.34-.388.468a1.003 1.003 0 0 1-.581.192Zm2.63-5.39h3.931l-1.938-5.335h-.055L16.22 16.61ZM6.893 7.205c.277.477.582.94.914 1.389.332.449.692.912 1.08 1.389A14.886 14.886 0 0 0 10.96 7.3 18.746 18.746 0 0 0 12.373 4.4H1.107c-.314 0-.576-.105-.789-.316A1.06 1.06 0 0 1 0 3.3c0-.312.106-.573.318-.784.213-.21.475-.316.79-.316H7.75V1.1c0-.312.107-.573.319-.784C8.28.106 8.544 0 8.858 0c.313 0 .576.105.788.316.213.211.319.472.319.784v1.1h6.643c.314 0 .577.105.789.316.212.211.318.472.318.784 0 .312-.106.573-.318.784-.212.21-.475.316-.789.316h-2.02a20.913 20.913 0 0 1-1.62 3.726 19.22 19.22 0 0 1-2.477 3.479l2.712 2.723-.83 2.227L8.858 13.2l-4.789 4.758a1.02 1.02 0 0 1-.747.302.977.977 0 0 1-.748-.33.966.966 0 0 1-.332-.742c0-.294.11-.55.332-.77l4.872-4.84a32.533 32.533 0 0 1-1.356-1.72 19.535 19.535 0 0 1-1.163-1.773c-.221-.403-.24-.752-.055-1.045.184-.293.516-.44.996-.44.203 0 .402.06.595.179.194.119.337.261.43.426Z"/></svg>